:SAMPLES-PER-SECOND 30
:FULLY-SPECIFIED
:DEGREES
78
root  -14.9102 37.967 1.57762 -93.6579 81.3071 -92.3617
RightUpLeg  -20.0184 -1.43645 11.6004
RightLeg  23.41 10.1612 0.426043
RightFoot  -4.85906 -0.0667003 0.933057
RightToes  -2.32832e-010 -1.59028e-015 9.93923e-017
Spine  7.95309 -3.97815 10.4271
Spine1  8.02858 -4.14219 3.62296
HEad  -19.4714 4.49306 1.85074
LeftShoulder1  9.93923e-017 0 1.22299e-017
LeftArm  -2.29984 17.1096 -83.5308
LeftForeArm  -11.1907 -11.0863 -4.40247
LeftHand  0.538094 4.52828 4.1367
RightShoulder  1.98785e-016 -4.96962e-017 1.55301e-017
RightArm  -23.7594 -42.4008 81.9363
RightForeArm  -157.808 7.12915 -10.912
RightHand  2.02436 12.0437 19.4086
LeftUpLeg  5.24837 -5.55018 11.4817
LeftLeg  41.5697 -0.785731 9.88955
LeftFoot  13.6694 0.645745 -2.51318
LeftToes  1.49248e-009 -4.82331e-011 8.60243e-011
79
root  -13.6763 38.2864 1.7971 -92.7282 81.3935 -91.1868
RightUpLeg  -16.6838 -0.505373 11.7749
RightLeg  21.5812 9.43887 0.128058
RightFoot  -6.10213 -0.0313249 0.518423
RightToes  -2.32832e-010 -1.59028e-015 9.93923e-017
Spine  7.19907 -3.06703 12.1035
Spine1  9.14608 -2.67234 2.34486
HEad  -19.4091 2.86398 2.32731
LeftShoulder1  9.93923e-017 0 1.22299e-017
LeftArm  0.183302 20.5506 -84.9459
LeftForeArm  -11.5091 -8.22852 -6.78419
LeftHand  0.597425 4.77226 3.39006
RightShoulder  1.98785e-016 -4.96962e-017 1.55301e-017
RightArm  -21.7637 -35.7848 83.87
RightForeArm  -158.96 9.55605 -11.2709
RightHand  2.25092 11.7633 20.9685
LeftUpLeg  0.133632 -4.1822 11.6397
LeftLeg  48.2895 -2.62686 10.8353
LeftFoot  16.3806 0.374317 -1.22409
LeftToes  1.49248e-009 -4.82331e-011 8.60243e-011
80
root  -12.3545 38.6868 2.01267 -90.9568 82.2772 -89.1865
RightUpLeg  -12.7112 1.79588 10.8786
RightLeg  18.6999 7.44819 -0.0212198
RightFoot  -6.83648 -0.0251374 0.464865
RightToes  -2.32832e-010 -1.59028e-015 9.93923e-017
Spine  6.29718 -1.99305 12.531
Spine1  10.1413 -1.23073 1.01752
HEad  -19.1106 1.66799 2.52849
LeftShoulder1  9.93923e-017 0 1.22299e-017
LeftArm  5.78151 24.9253 -85.7028
LeftForeArm  -13.1361 -9.27773 -6.88063
LeftHand  0.660973 5.0973 2.96118
RightShoulder  1.98785e-016 -4.96962e-017 1.55301e-017
RightArm  -17.9915 -28.8625 84.6368
RightForeArm  -158.992 12.735 -11.8288
RightHand  2.45764 12.0848 22.0609
LeftUpLeg  -4.89645 -2.99577 10.4266
LeftLeg  52.7669 -4.87893 9.86203
LeftFoot  14.9625 0.539539 -1.95866
LeftToes  1.49248e-009 -4.82331e-011 8.60243e-011
81
root  -11.0172 38.9896 2.19013 -90.1605 83.2707 -88.3575
RightUpLeg  -9.17142 3.01342 9.93714
RightLeg  16.282 6.426 0.178795
RightFoot  -7.60134 -0.0381535 0.799424
RightToes  -2.32832e-010 -1.59028e-015 9.93923e-017
Spine  5.51132 -1.05327 12.9898
Spine1  10.5965 0.145672 -0.42173
HEad  -18.3201 0.448705 2.71645
LeftShoulder1  9.93923e-017 0 1.22299e-017
LeftArm  10.3345 29.8355 -85.3478
LeftForeArm  -13.3137 -10.509 -6.46905
LeftHand  0.749109 5.48616 1.40914
RightShoulder  1.98785e-016 -4.96962e-017 1.55301e-017
RightArm  -13.2892 -22.4835 84.6145
RightForeArm  -160.869 16.1241 -13.4948
RightHand  2.44633 12.0106 22.0373
LeftUpLeg  -10.0393 -2.52252 8.60651
LeftLeg  54.8807 -6.98596 7.49106
LeftFoot  12.7844 0.795717 -3.25685
LeftToes  1.49248e-009 -4.82331e-011 8.60243e-011
82
root  -9.6612 39.1418 2.33185 -90.0988 83.9534 -88.3682
RightUpLeg  -6.1685 2.6774 9.3362
RightLeg  14.7875 6.96342 0.604721
RightFoot  -8.81406 -0.0278265 0.746645
RightToes  -2.32832e-010 -1.59028e-015 9.93923e-017
Spine  4.79367 -0.182059 14.0203
Spine1  10.7374 1.52257 -1.96321
HEad  -17.3284 -1.08684 3.06689
LeftShoulder1  9.93923e-017 0 1.22299e-017
LeftArm  12.5372 34.7557 -83.79
LeftForeArm  -12.3275 -10.8032 -6.29997
LeftHand  0.835862 5.85424 -1.22926
RightShoulder  1.98785e-016 -4.96962e-017 1.55301e-017
RightArm  -8.23993 -16.9519 83.9531
RightForeArm  -166.696 19.1791 -16.8363
RightHand  2.24473 10.8404 21.4846
LeftUpLeg  -14.9192 -2.7222 6.9701
LeftLeg  54.6408 -8.44682 5.06897
LeftFoot  11.1752 0.877534 -3.87456
LeftToes  1.49248e-009 -4.82331e-011 8.60243e-011
83
root  -8.26309 39.2205 2.47099 -86.9873 84.609 -85.1874
RightUpLeg  -2.94494 1.70792 8.71805
RightLeg  13.2639 8.27913 1.05889
RightFoot  -10.1374 -0.00332754 0.126768
RightToes  -2.32832e-010 -1.59028e-015 9.93923e-017
Spine  4.29934 0.836712 14.8695
Spine1  10.7721 2.96646 -3.60728
HEad  -16.5059 -2.73924 3.36483
LeftShoulder1  9.93923e-017 0 1.22299e-017
LeftArm  13.3437 39.4786 -81.1668
LeftForeArm  -11.7749 -10.4553 -6.41167
LeftHand  0.903076 6.21212 -3.74757
RightShoulder  1.98785e-016 -4.96962e-017 1.55301e-017
RightArm  -5.57647 -12.0143 82.6224
RightForeArm  -172.365 21.987 -20.3353
RightHand  2.11946 9.61344 21.4296
LeftUpLeg  -18.9241 -2.81817 5.55083
LeftLeg  52.0925 -9.21883 3.30517
LeftFoot  8.93612 0.799091 -3.91142
LeftToes  1.49248e-009 -4.82331e-011 8.60243e-011
84
root  -6.87701 39.2287 2.59833 -78.1238 85.1089 -76.0535
RightUpLeg  0.383413 0.915623 8.0609
RightLeg  11.8284 9.64342 1.41126
RightFoot  -11.4075 0.00658893 -0.459931
RightToes  -2.32832e-010 -1.59028e-015 9.93923e-017
Spine  4.40884 1.87198 15.5791
Spine1  10.6108 4.4261 -5.47595
HEad  -15.9489 -4.1368 3.38692
LeftShoulder1  9.93923e-017 0 1.22299e-017
LeftArm  14.5434 43.9521 -77.6914
LeftForeArm  -12.5895 -9.96902 -6.63198
LeftHand  0.940208 6.47552 -5.24598
RightShoulder  1.98785e-016 -4.96962e-017 1.55301e-017
RightArm  -5.63333 -7.25378 80.8733
RightForeArm  -174.636 24.7697 -22.5966
RightHand  2.23302 9.52604 22.3001
LeftUpLeg  -21.8563 -2.30851 4.41261
LeftLeg  47.0989 -9.35597 2.27741
LeftFoot  5.94238 0.74211 -4.24889
LeftToes  1.49248e-009 -4.82331e-011 8.60243e-011
85
root  -5.52561 39.1164 2.67993 -68.0438 84.9612 -65.6894
RightUpLeg  3.12026 0.494329 7.8127
RightLeg  11.4744 10.8624 1.60604
RightFoot  -12.9496 0.000793456 -0.894058
RightToes  -2.32832e-010 -1.59028e-015 9.93923e-017
Spine  4.94731 2.63203 16.8171
Spine1  10.2892 5.68188 -7.52794
HEad  -15.6841 -5.10233 3.34871
LeftShoulder1  9.93923e-017 0 1.22299e-017
LeftArm  13.9607 47.9152 -73.5178
LeftForeArm  -11.5477 -9.38623 -6.58922
LeftHand  0.946383 6.50492 -5.85761
RightShoulder  1.98785e-016 -4.96962e-017 1.55301e-017
RightArm  -6.24985 -2.59319 79.158
RightForeArm  -174.693 27.0265 -24.0217
RightHand  2.47501 10.2915 23.4105
LeftUpLeg  -23.7586 -1.54816 3.88239
LeftLeg  39.3515 -8.60966 1.9662
LeftFoot  4.57353 0.75785 -4.70272
LeftToes  1.49248e-009 -4.82331e-011 8.60243e-011
86
root  -4.16521 38.9625 2.73437 -62.1161 84.6822 -59.663
RightUpLeg  5.61665 0.360468 7.73431
RightLeg  11.2678 11.7165 1.59692
RightFoot  -14.5022 -0.0185267 -1.46794
RightToes  -2.32832e-010 -1.59028e-015 9.93923e-017
Spine  5.21339 3.09555 17.7536
Spine1  10.2372 6.50283 -9.2533
HEad  -15.7212 -5.69976 3.6163
LeftShoulder1  9.93923e-017 0 1.22299e-017
LeftArm  10.2091 51.1107 -69.2338
LeftForeArm  -7.88624 -8.60544 -6.1771
LeftHand  0.942166 6.44851 -5.99231
RightShoulder  1.98785e-016 -4.96962e-017 1.55301e-017
RightArm  -7.17923 1.51791 77.6813
RightForeArm  -174.025 28.6813 -25.0658
RightHand  2.57422 10.68 23.7785
LeftUpLeg  -24.573 -1.45 3.68441
LeftLeg  28.8453 -6.65301 1.94427
LeftFoot  5.59766 0.782993 -4.57719
LeftToes  1.49248e-009 -4.82331e-011 8.60243e-011
87
root  -2.77351 38.8581 2.79821 -58.6345 85.0013 -56.2487
RightUpLeg  8.60256 0.216469 7.18327
RightLeg  9.77481 12.1637 1.49606
RightFoot  -15.5058 -0.0405106 -1.89656
RightToes  -2.32832e-010 -1.59028e-015 9.93923e-017
Spine  4.92757 3.40892 17.1902
Spine1  10.7666 6.88625 -10.0989
HEad  -15.7822 -6.07273 4.09439
LeftShoulder1  9.93923e-017 0 1.22299e-017
LeftArm  4.46632 53.5142 -65.6068
LeftForeArm  -3.86571 -6.61807 -6.05191
LeftHand  0.948358 6.53753 -5.68018
RightShoulder  1.98785e-016 -4.96962e-017 1.55301e-017
RightArm  -8.6914 4.45319 76.4644
RightForeArm  -173.639 30.0618 -25.9728
RightHand  2.48384 10.33 23.441
LeftUpLeg  -24.298 -2.76264 3.45384
LeftLeg  16.4339 -3.67543 1.30861
LeftFoot  6.17762 0.759583 -4.29396
LeftToes  1.49248e-009 -4.82331e-011 8.60243e-011
88
root  -1.30009 38.7083 2.84405 -56.7612 85.5291 -54.4602
RightUpLeg  11.7494 -0.158982 6.33552
RightLeg  8.16083 12.6751 1.58104
RightFoot  -16.2038 -0.0488998 -1.77722
RightToes  -2.32832e-010 -1.59028e-015 9.93923e-017
Spine  4.42507 3.56354 15.9396
Spine1  11.5145 7.03085 -10.2685
HEad  -15.4927 -6.25298 4.34218
LeftShoulder1  9.93923e-017 0 1.22299e-017
LeftArm  -1.00539 55.1685 -62.9708
LeftForeArm  -0.673747 -3.95201 -5.96868
LeftHand  0.964165 6.73557 -5.06075
RightShoulder  1.98785e-016 -4.96962e-017 1.55301e-017
RightArm  -10.3508 5.93754 75.6066
RightForeArm  -173.645 31.3164 -26.8394
RightHand  2.38902 10.0118 23.0339
LeftUpLeg  -23.3921 -2.48285 2.18977
LeftLeg  4.45194 -3.5792 0.535688
LeftFoot  4.74174 0.732611 -4.49766
LeftToes  1.49248e-009 -4.82331e-011 8.60243e-011
89
root  0.293431 38.4643 2.81914 -55.6384 85.6505 -53.4719
RightUpLeg  14.3552 -0.582178 5.63596
RightLeg  7.92095 13.6573 1.78527
RightFoot  -16.6816 -0.047167 -1.48351
RightToes  -2.32832e-010 -1.59028e-015 9.93923e-017
Spine  3.98531 3.53511 15.2866
Spine1  11.973 7.12075 -10.5722
HEad  -15.0491 -6.09733 4.29258
LeftShoulder1  9.93923e-017 0 1.22299e-017
LeftArm  -4.77342 56.0514 -61.2813
LeftForeArm  1.79499 -2.12444 -5.58888
LeftHand  0.985992 6.96804 -4.67144
RightShoulder  1.98785e-016 -4.96962e-017 1.55301e-017
RightArm  -11.7968 6.07046 75.3536
RightForeArm  -173.806 32.3595 -27.587
RightHand  2.36112 10.0379 22.8214
LeftUpLeg  -23.0807 -2.20779 1.40791
LeftLeg  -2.37779 -3.86576 -0.00741753
LeftFoot  4.1342 0.656104 -4.17247
LeftToes  1.49248e-009 -4.82331e-011 8.60243e-011
